<svg 
          width="18" 
          height="18" fill="none" 
          xmlns="http://www.w3.org/2000/svg">
          <path d="M 9.583056234652048 0.3788219272188424 L 12.012131455719235 5.5348680281179945 L 17.44357586120052 6.363109151443256 C 17.563546757562648 6.381235652135706 17.676277304258615 6.434202084418635 17.76899781579173 6.516008744790881 C 17.861718327324848 6.597815405163127 17.9307241268081 6.705192849410271 17.968199993395483 6.82598051735243 C 18.005675859982865 6.946768185294588 18.010123603274913 7.076139091539843 17.981040069143834 7.199439440484629 C 17.951956535012755 7.3227397894294155 17.89050373872173 7.435042849435205 17.803641737537635 7.5236289130350515 L 13.87260167253197 11.533886671721456 L 14.800492673827298 17.202263398450384 C 14.820957322882597 17.32746570672794 14.807591050033647 17.456169963159674 14.761905408247321 17.573829594174093 C 14.716219766460995 17.691489225188512 14.64003581398898 17.793411675382245 14.541964549300861 17.868078850893752 C 14.443893284612741 17.94274602640526 14.32784565550001 17.98717997996216 14.206936746185994 17.996358158314226 C 14.086027836871978 18.005536336666292 13.965078669641208 17.97909297207115 13.857760874921446 17.920016851994962 L 9.000390312083312 15.247876004283766 L 4.1422398699489404 17.922472324336034 C 4.034830491087253 17.981287145588418 3.9138787168101272 18.007497689925383 3.7930163269795614 17.99815020042964 C 3.6721539371489955 17.9888027109339 3.5561853341289926 17.944269580503526 3.4581807004247995 17.869568056623812 C 3.3601760667206064 17.7948665327441 3.2840314032519093 17.6929660769697 3.238328108619317 17.57535314217466 C 3.192624813986725 17.45774020737962 3.179179730359144 17.329089171710834 3.1995084434782832 17.203899339336235 L 4.127399817208807 11.538797616403603 L 0.19635884439235501 7.52853907721105 C 0.10949684320825939 7.439953013611204 0.048043963992210226 7.327649953605414 0.018960429861131743 7.204349604660628 C -0.01012310426994674 7.0810492557158415 -0.005675036551927935 6.9516791299767355 0.031800830035454176 6.830891462034577 C 0.06927669662283628 6.710103794092419 0.13828276670353223 6.602725569339126 0.23100327823665012 6.5209189089668795 C 0.323723789769768 6.4391122485946335 0.43645352176374713 6.386145816311705 0.5564244181258746 6.3680193156192555 L 5.987868171845571 5.535686388813994 L 8.41694376534795 0.37964038547811074 C 8.470676829685138 0.26573833057670126 8.55371768069459 0.16983708896269778 8.656698176615224 0.1027564271103954 C 8.759678672535859 0.035675765258093003 8.878500117503304 0.00008525557617859332 8.999757172253512 1.5297830542933933e-7 C 9.12101422700372 -0.00008494961956773464 9.239881109064832 0.03533879392417591 9.342947265080086 0.10227484871947994 C 9.44601342109534 0.16921090351478396 9.529177606347007 0.26499539848264403 9.583056234652048 0.3788219272188424 L 9.583056234652048 0.3788219272188424 Z" fill="rgb(254,217,120)"/>
        </svg>